Coordinates
version=1
nRows=18
nColumns=34
inDegrees=no

Units are S.I. units (second, meters, Newtons, ...)
If the header above contains a line with 'inDegrees', this indicates whether rotational values are in degrees (yes) or radians (no).

endheader
time	pelvis_tilt	pelvis_list	pelvis_rotation	pelvis_tx	pelvis_ty	pelvis_tz	hip_flexion_r	hip_adduction_r	hip_rotation_r	knee_angle_r	ankle_angle_r	subtalar_angle_r	mtp_angle_r	hip_flexion_l	hip_adduction_l	hip_rotation_l	knee_angle_l	ankle_angle_l	subtalar_angle_l	mtp_angle_l	lumbar_extension	lumbar_bending	lumbar_rotation	arm_flex_r	arm_add_r	arm_rot_r	elbow_flex_r	pro_sup_r	arm_flex_l	arm_add_l	arm_rot_l	elbow_flex_l	pro_sup_l
0.46	-0.0215506	-0.110324	-0.00815085	0.594833	0.954296	-0.162532	-0.188617	0.165397	-0.213508	0.0863803	0.32512	0.356384	0.00834498	0.468454	-0.127081	-0.206793	0.115679	0.0843112	0.172923	0.020445	-0.0824377	0.0826683	0.197881	0.208824	-0.234882	0.137224	0.657821	1.60838	-0.299054	-0.130628	-0.184559	0.130988	1.78776
0.47	-0.0259107	-0.109338	-0.0108641	0.605379	0.952377	-0.163385	-0.191102	0.159767	-0.221082	0.0971862	0.335992	0.369226	0.0083481	0.469613	-0.12284	-0.202644	0.103546	0.087688	0.170698	0.0205118	-0.0785182	0.0818269	0.197395	0.209496	-0.233679	0.136981	0.663058	1.60695	-0.310967	-0.129747	-0.193563	0.125641	1.79066
0.48	-0.0302178	-0.108633	-0.0135897	0.615989	0.9505	-0.164183	-0.192917	0.154713	-0.225693	0.109329	0.345206	0.376914	0.00835123	0.473054	-0.120335	-0.196955	0.103067	0.0880386	0.161406	0.0205786	-0.0746598	0.0808696	0.197178	0.209528	-0.232112	0.136343	0.667544	1.60548	-0.320994	-0.129205	-0.202341	0.121118	1.79312
0.49	-0.0341576	-0.10783	-0.0162585	0.626695	0.948739	-0.16494	-0.194454	0.149889	-0.227119	0.122562	0.352424	0.379057	0.00835435	0.477863	-0.118951	-0.190683	0.112119	0.0848446	0.14633	0.0206454	-0.0711119	0.0793653	0.19726	0.208877	-0.230113	0.135241	0.67112	1.60385	-0.329081	-0.12912	-0.210628	0.117657	1.79489
0.5	-0.0373291	-0.106391	-0.0188108	0.637523	0.947147	-0.165676	-0.196222	0.1447	-0.225487	0.136708	0.357413	0.375742	0.00835747	0.482742	-0.11777	-0.184609	0.127926	0.0777374	0.12683	0.0207122	-0.0682536	0.0767301	0.197626	0.207543	-0.227635	0.133689	0.673638	1.6019	-0.335208	-0.129576	-0.218067	0.115357	1.79588
0.51	-0.03928	-0.103712	-0.0212093	0.648501	0.945782	-0.166418	-0.198741	0.138411	-0.22124	0.1517	0.360024	0.367508	0.0083606	0.486248	-0.115744	-0.179264	0.147506	0.0666318	0.104162	0.0207791	-0.0665134	0.0723336	0.198224	0.205564	-0.224652	0.131771	0.674972	1.59938	-0.3394	-0.130608	-0.224285	0.1142	1.79619
0.52	-0.0396003	-0.0992497	-0.0234451	0.659654	0.944691	-0.167197	-0.20242	0.130295	-0.215038	0.16762	0.360147	0.355217	0.00836372	0.487074	-0.1119	-0.17491	0.168135	0.051835	0.0793725	0.020846	-0.0662704	0.0656347	0.198977	0.202994	-0.22117	0.129601	0.67504	1.59608	-0.341724	-0.132198	-0.228962	0.114092	1.79602
0.53	-0.0380196	-0.0926287	-0.0255368	0.670995	0.943911	-0.16804	-0.207438	0.119782	-0.207614	0.184709	0.357643	0.339873	0.00836684	0.484299	-0.10552	-0.171572	0.187722	0.034086	0.0532651	0.0209129	-0.0677576	0.0563043	0.199791	0.199891	-0.217226	0.127293	0.673808	1.59186	-0.342287	-0.134277	-0.231884	0.114922	1.79561
0.54	-0.0344872	-0.0837236	-0.0275211	0.682528	0.943455	-0.168967	-0.213651	0.106561	-0.199649	0.203373	0.352283	0.322438	0.00836996	0.477549	-0.0962545	-0.169099	0.205015	0.0145091	0.0264335	0.0209798	-0.0709974	0.0442991	0.200566	0.196299	-0.212895	0.124933	0.671289	1.58674	-0.341227	-0.136732	-0.232968	0.116601	1.79515
0.55	-0.0292028	-0.0726876	-0.0294377	0.694239	0.943313	-0.169986	-0.220559	0.0906232	-0.19167	0.224168	0.343716	0.303685	0.00837308	0.467036	-0.0841504	-0.167239	0.219615	-0.00551316	-0.000671315	0.0210468	-0.0757786	0.029868	0.201198	0.19225	-0.208281	0.122579	0.66753	1.58092	-0.338693	-0.139424	-0.232247	0.119074	1.79471
0.56	-0.0225652	-0.059896	-0.0313162	0.706099	0.943453	-0.171101	-0.227322	0.0722376	-0.184016	0.247764	0.331458	0.284124	0.00837619	0.453487	-0.0696024	-0.165731	0.231824	-0.0245115	-0.0276427	0.0211138	-0.081671	0.0135094	0.201582	0.187768	-0.203517	0.120264	0.6626	1.57477	-0.334823	-0.1422	-0.229837	0.122316	1.79425
0.57	-0.0151328	-0.0458603	-0.0331608	0.718068	0.943825	-0.172308	-0.232851	0.0518751	-0.17684	0.274896	0.314925	0.26399	0.0083793	0.437973	-0.0532413	-0.164369	0.242371	-0.0411122	-0.0540274	0.0211808	-0.0881021	-0.00412566	0.201617	0.182885	-0.198747	0.118028	0.656575	1.56878	-0.329723	-0.144923	-0.225893	0.126311	1.79361
0.58	-0.00754078	-0.0311275	-0.0349434	0.730093	0.944372	-0.173599	-0.235941	0.0300957	-0.170149	0.306284	0.293511	0.243287	0.00838239	0.421679	-0.0357888	-0.163058	0.252114	-0.0542027	-0.0792811	0.0212478	-0.0944569	-0.0223597	0.201202	0.177653	-0.19411	0.115932	0.649533	1.56346	-0.323455	-0.147482	-0.220581	0.131036	1.7926
0.59	-0.000406655	-0.0161818	-0.0366076	0.742118	0.945034	-0.174965	-0.235431	0.00743732	-0.163852	0.342549	0.266694	0.221872	0.00838549	0.405693	-0.0179169	-0.161816	0.261772	-0.0630493	-0.102778	0.0213148	-0.100173	-0.0406049	0.20024	0.172152	-0.189728	0.114078	0.641555	1.55924	-0.316043	-0.149814	-0.214066	0.136454	1.79105
0.6	0.00575473	-0.00137223	-0.0380806	0.754087	0.945757	-0.176396	-0.230338	-0.0156687	-0.157808	0.384124	0.234179	0.199544	0.00838857	0.390841	-0.000140977	-0.160758	0.271744	-0.0673528	-0.12387	0.0213819	-0.104814	-0.0584465	0.198638	0.166497	-0.185683	0.112605	0.63273	1.55643	-0.307482	-0.1519	-0.206516	0.142518	1.78889
0.61	0.0105849	0.013113	-0.0392899	0.765947	0.946498	-0.177879	-0.219966	-0.038942	-0.151854	0.431185	0.196047	0.176128	0.00839165	0.377609	0.0172359	-0.160046	0.282049	-0.0672378	-0.141987	0.0214489	-0.108109	-0.0756817	0.196312	0.160826	-0.182018	0.111671	0.623161	1.55516	-0.297763	-0.153771	-0.19811	0.14919	1.78619
0.62	0.0138949	0.0272354	-0.0401824	0.777657	0.947223	-0.179397	-0.20397	-0.0622539	-0.145818	0.483596	0.152887	0.151549	0.00839472	0.366129	0.0341288	-0.159841	0.292366	-0.0631906	-0.156731	0.021516	-0.109966	-0.0923108	0.193195	0.15529	-0.17873	0.111431	0.61297	1.5554	-0.286885	-0.155493	-0.189029	0.156452	1.78319
0.63	0.0156593	0.0410749	-0.0407405	0.789184	0.947909	-0.180931	-0.182363	-0.0855871	-0.139526	0.540905	0.105877	0.125875	0.00839778	0.356233	0.0506273	-0.160246	0.302143	-0.055957	-0.167966	0.0215831	-0.110461	-0.108483	0.189249	0.150044	-0.17578	0.111996	0.602291	1.55703	-0.274865	-0.157158	-0.17944	0.164308	1.78025
